<svg xmlns="http://www.w3.org/2000/svg" viewBox="0 0 17.15 18" fill="#f9b414" id="sign-vi"><path d="M7.98 7.17A1.24 1.24 0 0 1 9.26 6a1.37 1.37 0 0 1 1.13 1.13V9a1.94 1.94 0 0 1-3.22 1.37A1.77 1.77 0 0 1 6.58 9V7h-.62a.57.57 0 0 1 .24-.48.69.69 0 0 1 1 0 .7.7 0 0 1 .29.48v1.94a.79.79 0 0 0 .32.72 1.2 1.2 0 0 0 .77.34.79.79 0 0 0 .72-.32 1 1 0 0 0 .28-.74V7.09a.43.43 0 0 0-.16-.24.28.28 0 0 0-.16-.08c-.08 0-.24.08-.32.08a.24.24 0 0 0-.08.32c0 .08.08.24.08.32a.42.42 0 0 0 .32.16v.81a1.39 1.39 0 0 1-1.28-1.29m4.43-3.47l1.85-1.85.56.56-1.85 1.86zM2.74 1.85L4.58 3.7l-.56.56-1.84-1.84zM8.14 0h.81v2.25h-.81V0zm6.36 7.73h2.66v.81H14.5v-.81zM0 7.73h2.66v.81H0v-.81zm10.63 4.51v1.53H6.45v-1.53A4.62 4.62 0 0 1 10.63 4a4.63 4.63 0 0 1 0 8.21m-3.38-.48V13h2.58v-1.24a3.37 3.37 0 0 0 1.85-1.45 3.78 3.78 0 0 0-.48-4.75 3.89 3.89 0 0 0-5.4 0 3.78 3.78 0 0 0-.48 4.67 4 4 0 0 0 1.93 1.53M7.33 14.58h2.82V15c0 3.87-3.22 4.19-3.22 0v-.4h.4zm2 .81h-1.6c0 2.42 1.61 2.25 1.61 0"></path></svg>